# xmcd
#
# Track frame offsets: 
#        150
#        18419
#        30110
#        43301
#        56780
#        74192
#        86195
#        99774
#        120465
#        140523
#        183618
#        200762
#        212601
#        226171
#        241662
#        261391
#        276346
#        291569
#        313182
#        330713
#
# Disc length: 4630 seconds
#
# Revision: 0
# Processed by: cddbd v1.5.2PL0 Copyright (c) Steve Scherf et al.
# Submitted via: ExactAudioCopy v0.99pb4
#
DISCID=38121414
DTITLE=Fabrizio De André - Non al denaro non all'amore nè al cielo and C
DTITLE=anzoni
DYEAR=2001
DGENRE=Blues
TTITLE0=Dormono sulla collina 
TTITLE1=Un matto (dietro ogni scemo c'e' un villaggio)
TTITLE2=Un giudice
TTITLE3=Un blasfemo (dietro ogni blasfemo c'e' un giardino incantato)
TTITLE4=Un malato di cuore
TTITLE5=Un medico
TTITLE6=Un chimico
TTITLE7=Un ottico
TTITLE8=Il senatore Jones
TTITLE9=Via della poverta' (desolation road)
TTITLE10=Le passanti
TTITLE11=Fila la lana
TTITLE12=Ballata dell'amore cieco
TTITLE13=Suzanne
TTITLE14=Morire per delle idee
TTITLE15=La canzone dell'amore perduto
TTITLE16=La citta' vecchia
TTITLE17=Giovanna d'Arco
TTITLE18=Delitto di paese
TTITLE19=Valzer per un amore
EXTD=
EXTT0=
EXTT1=
EXTT2=
EXTT3=
EXTT4=
EXTT5=
EXTT6=
EXTT7=
EXTT8=
EXTT9=
EXTT10=
EXTT11=
EXTT12=
EXTT13=
EXTT14=
EXTT15=
EXTT16=
EXTT17=
EXTT18=
EXTT19=
PLAYORDER=
